<svg fill="#000000" height="256px" width="256px" version="1.1" id="Layer_1" xmlns="http://www.w3.org/2000/svg" xmlns:xlink="http://www.w3.org/1999/xlink" viewBox="0 0 344.118 344.118" xml:space="preserve" stroke="#000000" stroke-width="1.3764720000000001">

<g id="SVGRepo_bgCarrier" stroke-width="0"/>

<g id="SVGRepo_tracerCarrier" stroke-linecap="round" stroke-linejoin="round"/>

<g id="SVGRepo_iconCarrier"> <g> <g> <g> <path d="M161.392,283.581h16.156c3.024,0,3.028-4.7,0-4.7h-16.156C158.368,278.881,158.364,283.581,161.392,283.581z"/> <path d="M151.697,278.881H112.92c-3.024,0-3.028,4.7,0,4.7h38.776C154.72,283.581,154.724,278.881,151.697,278.881z"/> <path d="M327.212,207.217c-1.252-28.724-27.34-51.796-59.072-51.796c-0.488,0-0.96,0.076-1.452,0.088 c1.308-8.048,1.488-16.248,0.48-24.392c-0.164-1.308-1.084-2.4-2.348-2.784c-1.256-0.38-2.632,0.024-3.492,1.028 c-16.936,19.84-45.1,25.652-68.472,14.128c-13.656-6.728-23.868-18.372-28.76-32.784c-4.896-14.412-3.884-29.864,2.848-43.524 c0.884-1.792,1.908-3.6,3.132-5.512c0.708-1.116,0.696-2.54-0.036-3.64c-0.732-1.1-2.032-1.66-3.348-1.436 c-27.136,4.744-50.564,22.252-62.676,46.82c-9.108,18.468-11.232,39.44-6.2,59.328c-5.112-1.304-10.436-2.012-15.9-2.012 c-34.328,0-62.52,27.472-63.644,61.58c-15.136,10.992-21.864,30.788-16.38,48.788c3.568,11.72,11.592,21.204,22.536,26.668 c0.444,0.24,11.028,5.76,23.232,4.6c13.944,0.26,62.7,1.1,99.456,1.1c22.232,0,40.076-0.308,43.152-1.248 c23.384-7.12,36.616-31.936,29.5-55.316c-4.368-14.344-15.376-25.24-29.676-29.512c-0.204-0.984-0.436-1.888-0.704-2.764 c-2.16-7.092-6.324-13.036-11.676-17.404c5.596-9.776,17.688-13.968,30.904-10.316c2.684,0.736,5.22,1.848,7.528,3.304 c0.784,0.496,1.736,0.652,2.628,0.4c0.896-0.236,1.652-0.836,2.084-1.652c8.708-16.32,27.264-26.868,47.276-26.868 c28.76,0,52.288,21.092,52.456,47.016c0.008,1.156,0.616,2.232,1.612,2.828c12.656,7.644,18.208,21.596,13.808,34.704 c-2.756,8.204-8.988,14.86-17.612,18.768c-0.088,0.036-8.656,4.012-18.736,3.208c-0.308,0.004-31.136,0.752-68.86,0.832 c-1.832,0.004-3.328,1.5-3.32,3.34c0.004,1.836,1.496,3.324,3.332,3.324h0.008c37.8-0.084,68.7-0.832,68.644-0.848 c11.628,1,21.404-3.644,21.744-3.812c10.268-4.66,17.768-12.712,21.116-22.688C347.473,233.421,341.268,216.601,327.212,207.217z M183.025,216.561c0.356,1.18,0.64,2.452,0.88,4.004c0.212,1.324,1.188,2.392,2.488,2.712c13.02,3.232,23.12,12.788,27.008,25.56 c6.048,19.868-5.196,40.956-25.052,47.004c-6.08,1.672-89.44,0.808-140.936-0.132c-10.524,1.024-19.78-3.788-19.932-3.868 c-9.36-4.68-16.184-12.736-19.216-22.688c-4.8-15.776,1.428-33.176,15.152-42.316c0.924-0.616,1.48-1.648,1.488-2.752 c0.18-31.268,25.76-56.7,57.016-56.7c22.02,0,41.684,12.364,51.312,32.272c0.424,0.876,1.208,1.524,2.148,1.772 c0.944,0.244,1.944,0.068,2.748-0.488c2.516-1.74,5.268-3.076,8.18-3.964C161.832,192.277,178.301,201.041,183.025,216.561z M260.048,155.921c-18.256,2.26-34.208,12.096-43.368,26.956c-2-0.996-4.104-1.8-6.284-2.396 c-15.804-4.388-31,1.02-38.188,13.036c-8.228-4.504-18.176-5.848-27.844-2.908c-2.372,0.728-4.656,1.688-6.828,2.884 c-7.416-13.372-19.064-23.312-32.824-28.56c0.156-0.564,0.22-1.156,0.048-1.764c-5.34-18.952-3.48-39.132,5.236-56.812 c10.104-20.496,28.744-35.66,50.732-41.62c-15.132,31.38-2.12,69.292,29.188,84.728c23.812,11.736,52.064,7.376,71.208-10.292 c0.172,5.352-0.196,10.7-1.1,15.972C259.98,155.413,260.028,155.665,260.048,155.921z"/> <path d="M308.973,203.809c3.528-11.316-3.2-23.68-14.516-27.044c-2.904-0.864-4.148,3.668-1.248,4.532 c8.928,2.656,13.988,12.424,11.232,21.26C303.536,205.453,308.072,206.693,308.973,203.809z"/> <path d="M114.14,131.525c1.02-5.216,2.404-10.328,3.976-15.404c0.896-2.896-3.64-4.136-4.532-1.252 c-1.572,5.076-2.956,10.192-3.976,15.408C109.032,133.229,113.56,134.493,114.14,131.525z"/> <path d="M113.188,141.429c-0.024-3.024-4.724-3.028-4.7,0c0.06,7.58,1.732,14.872,5.704,21.38c1.572,2.58,5.64,0.22,4.06-2.372 C114.692,154.597,113.24,148.229,113.188,141.429z"/> <path d="M236.724,58.429l-1.22,7.056c-0.148,0.88,0.212,1.772,0.936,2.3c0.408,0.3,0.896,0.448,1.38,0.448 c0.372,0,0.752-0.088,1.092-0.272l6.34-3.332l6.34,3.332c0.792,0.424,1.748,0.348,2.476-0.18 c0.724-0.524,1.084-1.412,0.936-2.296l-1.212-7.06l5.128-4.996c0.64-0.624,0.872-1.56,0.596-2.408 c-0.276-0.856-1.012-1.476-1.896-1.604l-7.092-1.028l-3.168-6.42c-0.392-0.804-1.212-1.316-2.108-1.316s-1.712,0.512-2.104,1.308 l-3.172,6.424l-7.092,1.028c-0.88,0.128-1.62,0.748-1.896,1.604c-0.276,0.848-0.044,1.784,0.596,2.408L236.724,58.429z M241.88,52.865c0.76-0.116,1.428-0.592,1.768-1.284l1.612-3.264l1.608,3.256c0.34,0.7,1.004,1.176,1.768,1.292l3.604,0.524 l-2.604,2.532c-0.556,0.54-0.808,1.316-0.68,2.08l0.616,3.584l-3.216-1.688c-0.68-0.356-1.508-0.356-2.184,0l-3.224,1.688 l0.62-3.58c0.128-0.764-0.124-1.544-0.68-2.084l-2.604-2.532L241.88,52.865z"/> <path d="M45.032,122.029l-1.212,7.06c-0.152,0.88,0.212,1.768,0.936,2.296c0.728,0.528,1.684,0.6,2.476,0.18l6.336-3.332 l6.344,3.332c0.344,0.184,0.72,0.272,1.092,0.272c0.488,0,0.976-0.152,1.38-0.448c0.728-0.528,1.088-1.42,0.936-2.3l-1.216-7.056 l5.128-4.996c0.64-0.624,0.872-1.56,0.596-2.408c-0.276-0.856-1.012-1.476-1.896-1.604l-7.084-1.028l-3.172-6.424 c-0.792-1.596-3.424-1.596-4.212,0l-3.172,6.424l-7.088,1.028c-0.88,0.128-1.62,0.748-1.896,1.604 c-0.276,0.848-0.044,1.784,0.596,2.408L45.032,122.029z M50.188,116.465c0.76-0.116,1.428-0.592,1.768-1.284l1.612-3.264 l1.612,3.264c0.336,0.696,1.004,1.172,1.768,1.284l3.6,0.524l-2.604,2.532c-0.556,0.54-0.808,1.32-0.68,2.084l0.616,3.58 l-3.22-1.688c-0.34-0.18-0.716-0.272-1.092-0.272c-0.376,0-0.752,0.092-1.092,0.272l-3.216,1.688l0.616-3.584 c0.128-0.76-0.124-1.54-0.68-2.08l-2.604-2.532L50.188,116.465z"/> </g> </g> </g> </g>

</svg>